<svg xmlns="http://www.w3.org/2000/svg" width="103.621" height="103.585" viewBox="0 0 103.621 103.585"><g transform="translate(0 0)"><path d="M131.221,33.406h-16.7V23.791a13.369,13.369,0,1,1,16.7,0v9.615Z" transform="translate(-71.076 0)" fill="#05e69b"/><path d="M139.071,40.5H130.72V33.52a5.018,5.018,0,1,0-3.369,0V40.5H119v3.369h20.036l.035-3.369ZM129.036,27.134a1.685,1.685,0,0,1,1.684,1.684,1.684,1.684,0,0,1-3.369,0A1.732,1.732,0,0,1,129.036,27.134Z" transform="translate(-77.243 -15.449)" fill="#182935"/><path d="M115.892,205.5l-1.825,2.807a19.176,19.176,0,0,1,8.843,16.176v9.158H102.137l12.176-20.879-2.877-1.684-10.246,17.58-10.246-17.58-2.877,1.684,12.176,20.879H79.469v-9.158a19.176,19.176,0,0,1,8.843-16.176L86.487,205.5A22.536,22.536,0,0,0,76.1,224.484v12.492h50.144V224.484A22.548,22.548,0,0,0,115.892,205.5Z" transform="translate(-49.397 -133.39)" fill="#182935"/><path d="M94.8,127.957A18.457,18.457,0,1,0,113.257,109.5,18.48,18.48,0,0,0,94.8,127.957Zm33.546,0a15.089,15.089,0,1,1-15.089-15.089A15.11,15.11,0,0,1,128.346,127.957Z" transform="translate(-61.535 -71.077)" fill="#182935"/><path d="M41.133,118.714a15.394,15.394,0,0,1-4.176.6A15.089,15.089,0,1,1,48.642,94.678l2.6-2.105a18.493,18.493,0,1,0-9.194,29.405Z" transform="translate(-12.008 -55.693)" fill="#182935"/><path d="M3.334,200.684a19.176,19.176,0,0,1,8.843-16.176L10.352,181.7A22.5,22.5,0,0,0,0,200.684v12.492H21.721v-3.334H3.334Z" transform="translate(0 -117.942)" fill="#182935"/><path d="M215.539,104.157A18.453,18.453,0,0,0,182.8,92.472l2.6,2.105a15.088,15.088,0,1,1,11.685,24.633,15.792,15.792,0,0,1-4.176-.6l-.912,3.228a18.211,18.211,0,0,0,5.088.737A18.427,18.427,0,0,0,215.539,104.157Z" transform="translate(-118.656 -55.628)" fill="#182935"/><path d="M241.618,181.7l-1.825,2.807a19.176,19.176,0,0,1,8.843,16.176v9.158H228.6v3.334h23.4V200.684A22.619,22.619,0,0,0,241.618,181.7Z" transform="translate(-148.384 -117.942)" fill="#182935"/></g></svg>