<svg xmlns="http://www.w3.org/2000/svg" width="79.457" height="79.457" viewBox="0 0 79.457 79.457"><path d="M41.683,79.456H37.8L24.977,61.52H6.4a6.4,6.4,0,0,1-6.4-6.4V6.4A6.4,6.4,0,0,1,6.4,0h66.66a6.4,6.4,0,0,1,6.4,6.4v48.7a6.4,6.4,0,0,1-6.4,6.4H54.479Zm-2.57-2.543h1.231L53.167,58.977H73.058a3.856,3.856,0,0,0,3.855-3.855V6.4a3.856,3.856,0,0,0-3.855-3.855H6.4A3.868,3.868,0,0,0,2.57,6.4v48.7A3.856,3.856,0,0,0,6.425,58.95H26.316Z" fill="#182935"/><ellipse cx="25.647" cy="25.647" rx="25.647" ry="25.647" transform="translate(14.082 5.113)" fill="#05e69b"/><g transform="translate(5.113 10.227)"><path d="M105.3,86.561V53.9l28.19,16.33Zm2.57-28.217V82.09L128.377,70.2Z" transform="translate(-82.223 -49.697)" fill="#182935"/><path d="M150.883,40.957a16,16,0,0,0-2.383-.187V38.2a17.167,17.167,0,0,1,2.731.214Z" transform="translate(-113.858 -38.2)" fill="#182935"/><path d="M181.941,60.93h-2.57A17.96,17.96,0,0,0,166.2,43.663l.7-2.463A20.515,20.515,0,0,1,181.941,60.93Z" transform="translate(-126.82 -40.397)" fill="#182935"/><path d="M33.208,186.168H21.67a2.571,2.571,0,0,1-2.57-2.57v-6.4h2.57v6.4H33.208Z" transform="translate(-19.1 -139.988)" fill="#182935"/><rect width="2.57" height="2.57" transform="translate(0.027 32.072)" fill="#182935"/></g></svg>