<svg xmlns="http://www.w3.org/2000/svg" width="97.088" height="97.088" viewBox="0 0 97.088 97.088"><g transform="translate(0 10.954)"><path d="M240.3,43.689h14.084a4.7,4.7,0,0,0,4.695-4.695h0a4.7,4.7,0,0,0-4.695-4.695H240.3Z" transform="translate(-163.556 -34.3)" fill="#05e69b"/><path d="M240.3,141.789h14.084a4.7,4.7,0,0,0,4.695-4.695h0a4.7,4.7,0,0,0-4.695-4.695H240.3Z" transform="translate(-163.556 -101.07)" fill="#05e69b"/><path d="M97.088,277.319H84.728l-.383-1.054a3.117,3.117,0,0,0-5.876,0l-.383,1.054H18.97l-.383-1.054a3.117,3.117,0,0,0-5.876,0l-.383,1.054H0v-4.695A7.837,7.837,0,0,1,7.825,264.8H89.263a7.837,7.837,0,0,1,7.825,7.824Z" transform="translate(0 -191.186)" fill="#05e69b"/></g><path d="M90.828,40.719H78.309V34.46h-3.13v6.26h-3.13V21.909h3.13v6.26h3.13v-6.26H90.828a6.26,6.26,0,1,0,0-12.519H78.309V3.13h-3.13v6.26h-3.13V0H62.66V9.421c-9.357.032-18.779.351-28.2.894V0H25.07V10.922c-4.95.383-9.9.83-14.819,1.341a8.933,8.933,0,0,0-5.333,2.555L1.086,18.651a3.593,3.593,0,0,0,.1,5.238,3.712,3.712,0,0,0,2.459.958H3.96l11.242-.99c3.289-.287,6.547-.511,9.868-.735v19.13c-4.95.383-9.9.83-14.819,1.341a8.933,8.933,0,0,0-5.333,2.555L1.086,49.981A3.7,3.7,0,0,0,.032,52.568a3.556,3.556,0,0,0,1.182,2.683,3.712,3.712,0,0,0,2.459.958h.319l11.242-.99c3.289-.287,6.547-.511,9.868-.735V81.439H15.649a3.13,3.13,0,1,1,3.13-3.13h3.13a6.26,6.26,0,1,0-6.26,6.26H28.168V54.261c1.054-.064,2.076-.1,3.13-.16V84.6h3.13v-.16a9.125,9.125,0,0,0,6.643-4.918,7.788,7.788,0,0,1,6.994-4.343h.926a7.788,7.788,0,0,1,6.994,4.343,9.067,9.067,0,0,0,6.643,4.918v.16h3.13V53.271h3.13V84.6H81.439a6.26,6.26,0,1,0-6.26-6.26h3.13a3.13,3.13,0,1,1,3.13,3.13H72.049v-28.2h3.13v6.26h3.13v-6.26H90.828a6.276,6.276,0,0,0,0-12.551Zm-3.13,3.13v6.26h-3.13v-6.26Zm-18.811-3.13h-3.13V21.909h3.13ZM60.2,21.909H62.66V40.719c-9.357.032-18.779.351-28.2.894V22.579C43.051,22.164,51.642,21.909,60.2,21.909Zm24.368-3.13v-6.26H87.7v6.26h-3.13Zm9.389-3.13a3.135,3.135,0,0,1-3.13,3.13v-6.26A3.135,3.135,0,0,1,93.958,15.649Zm-12.519-3.13v6.26h-3.13v-6.26ZM68.888,3.13v6.26h-3.13V3.13ZM28.2,3.13h3.13v7.345c-1.054.064-2.076.16-3.13.224ZM14.914,20.759,3.7,21.717a.494.494,0,0,1-.543-.511.513.513,0,0,1,.16-.351l3.832-3.832A5.642,5.642,0,0,1,10.6,15.394a523.79,523.79,0,0,1,54.356-2.842H75.211v6.26h-6.26V15.649h-3.13v3.13H60.233c-9.581,0-19.258.287-28.871.83v-2.4h-3.13v2.555C23.761,20.056,19.322,20.376,14.914,20.759ZM28.2,22.931c1.054-.064,2.076-.1,3.13-.16V41.805c-1.054.064-2.076.16-3.13.224ZM62.628,81.215a6.127,6.127,0,0,1-3.832-3.13,10.924,10.924,0,0,0-9.8-6.068h-.926a10.924,10.924,0,0,0-9.8,6.068,6.048,6.048,0,0,1-3.832,3.13V53.909c8.591-.415,17.182-.671,25.741-.671h2.459V81.215Zm6.26-31.106v-3.13h-3.13v3.13H60.169c-9.581,0-19.258.287-28.871.83v-2.4h-3.13V51.1c-4.439.255-8.846.575-13.254.958l-11.242.99a.494.494,0,0,1-.543-.511.513.513,0,0,1,.16-.351l3.832-3.832a5.642,5.642,0,0,1,3.449-1.629,523.791,523.791,0,0,1,54.356-2.842H75.179v6.26H68.888Zm9.421-6.26h3.13v6.26h-3.13Zm12.519,6.26v-6.26a3.13,3.13,0,0,1,0,6.26Z" transform="translate(0)" fill="#182935"/></svg>