<svg xmlns="http://www.w3.org/2000/svg" width="94.042" height="92.458" viewBox="0 0 94.042 92.458"><g transform="translate(4.753 16.571)"><path d="M15,52.3V72.008H34.708V59.873h6.084V52.3Z" transform="translate(-15 -52.3)" fill="#05e69b"/><rect width="24.271" height="7.573" transform="translate(31.844)" fill="#05e69b"/><rect width="27.313" height="21.229" transform="translate(54.626 24.271)" fill="#05e69b"/><rect width="27.313" height="21.229" transform="translate(24.271 24.271)" fill="#05e69b"/></g><rect width="3.042" height="3.042" transform="translate(6.084 6.084)" fill="#182935"/><rect width="3.042" height="3.042" transform="translate(12.136 6.084)" fill="#182935"/><rect width="3.042" height="3.042" transform="translate(18.219 6.084)" fill="#182935"/><path d="M69.771,24.271V0H0V68.187l23.225-16.6h1.046V75.855H70.817l23.225,16.6V24.271ZM91.032,36.407H27.313V27.313H91.032ZM66.761,3.042v9.094H3.042V3.042Zm-44.486,45.5L3.042,62.294V15.177H66.761v9.094H24.271V42.49H6.084v3.042H24.3v3.042H22.275ZM71.8,72.813H27.313v-33.4H91.032V86.533Z" fill="#182935"/><rect width="3.042" height="3.042" transform="translate(42.49 30.355)" fill="#182935"/><rect width="3.042" height="3.042" transform="translate(36.407 30.355)" fill="#182935"/><rect width="3.042" height="3.042" transform="translate(30.355 30.355)" fill="#182935"/><rect width="27.313" height="3.042" transform="translate(30.355 66.761)" fill="#182935"/><rect width="3.042" height="3.042" transform="translate(84.949 66.761)" fill="#182935"/><rect width="21.229" height="3.042" transform="translate(60.678 66.761)" fill="#182935"/></svg>