<svg xmlns="http://www.w3.org/2000/svg" width="101.971" height="78.988" viewBox="0 0 101.971 78.988"><path d="M90.462,74a1.647,1.647,0,0,1-1.649,1.649H4.948A1.647,1.647,0,0,1,3.3,74V26.317H90.462v21.37h3.3V14.808A4.942,4.942,0,0,0,88.813,9.86h-6.6V4.948a4.948,4.948,0,0,0-9.9,0V9.9H21.37V4.948a4.93,4.93,0,1,0-9.86,0V9.9H4.948A4.89,4.89,0,0,0,0,14.808V74.04a4.942,4.942,0,0,0,4.948,4.948h83.9A4.942,4.942,0,0,0,93.8,74.04v-3.3H90.5L90.462,74ZM75.654,4.948a1.649,1.649,0,0,1,3.3,0v6.6a1.649,1.649,0,0,1-3.3,0v-6.6Zm-60.846,0a1.649,1.649,0,0,1,3.3,0v6.6a1.649,1.649,0,0,1-3.3,0Zm-9.86,8.211h6.878a4.9,4.9,0,0,0,9.264,0H72.671a4.9,4.9,0,0,0,9.264,0h6.878a1.647,1.647,0,0,1,1.649,1.649v8.211H3.3V14.808A1.647,1.647,0,0,1,4.948,13.159Z" fill="#182935"/><path d="M224.966,154.632a13.966,13.966,0,1,1,13.966-13.966A13.98,13.98,0,0,1,224.966,154.632Z" transform="translate(-136.96 -82.241)" fill="#05e69b"/><path d="M228.925,138.092l-1.825,2.737,6.176,4.105,15.755-19.264-2.562-2.07-13.861,16.948Z" transform="translate(-147.411 -80.229)" fill="#182935"/><path d="M34.91,89.1H23.4v9.86H34.91Zm-3.263,6.562H26.7v-3.3h4.948v3.3Z" transform="translate(-15.189 -57.835)" fill="#182935"/><path d="M81.81,89.1H70.3v9.86H81.81V89.1Zm-3.263,6.562H73.6v-3.3h4.948Z" transform="translate(-45.632 -57.835)" fill="#182935"/><path d="M128.71,89.1H117.2v9.86h11.51Zm-3.3,6.562h-4.948v-3.3h4.948Z" transform="translate(-76.075 -57.835)" fill="#182935"/><path d="M175.609,89.1H164.1v9.86h11.509Zm-3.3,6.562h-4.948v-3.3h4.948Z" transform="translate(-106.517 -57.835)" fill="#182935"/><path d="M222.509,89.1H211v9.86h11.509Zm-3.3,6.562h-4.948v-3.3h4.948Z" transform="translate(-136.96 -57.835)" fill="#182935"/><path d="M34.91,131.3H23.4v9.86H34.91Zm-3.263,6.562H26.7v-3.3h4.948v3.3Z" transform="translate(-15.189 -85.227)" fill="#182935"/><path d="M81.81,131.3H70.3v9.86H81.81V131.3Zm-3.263,6.562H73.6v-3.3h4.948Z" transform="translate(-45.632 -85.227)" fill="#182935"/><path d="M128.71,131.3H117.2v9.86h11.51Zm-3.3,6.562h-4.948v-3.3h4.948Z" transform="translate(-76.075 -85.227)" fill="#182935"/><path d="M175.609,131.3H164.1v9.86h11.509Zm-3.3,6.562h-4.948v-3.3h4.948Z" transform="translate(-106.517 -85.227)" fill="#182935"/><path d="M23.4,183.36H34.91V173.5H23.4Zm3.3-6.6h4.948v3.3H26.7Z" transform="translate(-15.189 -112.619)" fill="#182935"/><path d="M70.3,183.36H81.81V173.5H70.3Zm3.3-6.6h4.948v3.3H73.6Z" transform="translate(-45.632 -112.619)" fill="#182935"/><path d="M117.2,183.36h11.51V173.5H117.2v9.86Zm3.3-6.6h4.948v3.3H120.5Z" transform="translate(-76.075 -112.619)" fill="#182935"/><path d="M164.1,183.36H175.61V173.5H164.1Zm3.263-6.6h4.948v3.3h-4.948v-3.3Z" transform="translate(-106.517 -112.619)" fill="#182935"/></svg>