<svg xmlns="http://www.w3.org/2000/svg" width="94.57" height="94.602" viewBox="0 0 94.57 94.602"><ellipse cx="13.733" cy="13.733" rx="13.733" ry="13.733" transform="translate(33.552 24.407)" fill="#05e69b"/><path d="M94.57,0H0V61.018H7.743a12.375,12.375,0,0,0-.127,1.529,10.674,10.674,0,0,0,21.348,0,12.375,12.375,0,0,0-.127-1.529H65.7a12.375,12.375,0,0,0-.127,1.529,10.674,10.674,0,0,0,21.348,0,12.378,12.378,0,0,0-.127-1.529h7.743V0ZM91.543,3.059V12.2H3.059V3.059Zm-73.221,67.1a7.615,7.615,0,1,1,7.615-7.615A7.615,7.615,0,0,1,18.321,70.163Zm57.959,0A7.615,7.615,0,1,1,83.9,62.547,7.615,7.615,0,0,1,76.28,70.163Zm9.623-12.2a10.627,10.627,0,0,0-19.245,0H27.944a10.627,10.627,0,0,0-19.245,0H3.059v-42.7H91.543V57.991H85.9Z" fill="#182935"/><rect width="3.059" height="3.059" transform="translate(6.118 6.118)" fill="#182935"/><rect width="3.059" height="3.059" transform="translate(12.204 6.118)" fill="#182935"/><rect width="3.059" height="3.059" transform="translate(18.321 6.118)" fill="#182935"/><path d="M9.6,245.062v6.118H40.125v-6.118a15.262,15.262,0,0,0-30.525,0Zm15.262-12.2a12.225,12.225,0,0,1,12.2,12.2v3.059H34.007V242H30.948v6.118h-12.2V242H15.686v6.118H12.627v-3.059A12.252,12.252,0,0,1,24.862,232.859Z" transform="translate(-6.541 -156.579)" fill="#182935"/><path d="M191.5,245.062v6.118h30.525v-6.118a15.262,15.262,0,0,0-30.525,0Zm15.262-12.2a12.225,12.225,0,0,1,12.2,12.2v3.059h-3.059V242h-3.059v6.118h-12.2V242h-3.059v6.118h-3.059v-3.059A12.273,12.273,0,0,1,206.762,232.859Z" transform="translate(-130.482 -156.579)" fill="#182935"/><path d="M125.574,86.2a10.674,10.674,0,1,0,10.674,10.674A10.675,10.675,0,0,0,125.574,86.2Zm0,18.289a7.615,7.615,0,1,1,7.615-7.615A7.615,7.615,0,0,1,125.574,104.489Z" transform="translate(-78.289 -58.734)" fill="#182935"/><path d="M115.833,122.344l-2.868-1.02A16.762,16.762,0,0,1,80.592,118.3l3.664,1.848,1.37-2.74-7.074-3.5L73.2,119.253l2.167,2.167,2.294-2.294a19.778,19.778,0,0,0,38.172,3.218Z" transform="translate(-49.876 -77.608)" fill="#182935"/><path d="M128,73.873a19.806,19.806,0,0,0-38.2-3.25l2.868,1.02a16.762,16.762,0,0,1,32.373,3.027l-3.664-1.848-1.37,2.74L127.08,79.1l5.353-5.353-2.167-2.167Z" transform="translate(-61.187 -39.111)" fill="#182935"/></svg>