<svg xmlns="http://www.w3.org/2000/svg" width="341.767" height="115.204" viewBox="0 0 341.767 115.204">
  <g id="Grupo_169" data-name="Grupo 169" transform="translate(11325.096 -9215.523)">
    <g id="Grupo_167" data-name="Grupo 167">
      <path id="Trazado_270" data-name="Trazado 270" d="M5.9-99.36v17.568H57.456L14.112,0H32.688l41.76-86.256v-13.1ZM120.672-63.936c-7.488,0-15.7,2.736-20.448,6.912l1.728-24.768h46.8V-99.36H90.144L84.96-40.608H99.5c3.6-3.456,11.952-6.192,19.44-6.192,12.528,0,21.888,6.624,21.888,15.264,0,8.784-9.36,15.264-21.888,15.264C108-16.272,99.216-21.456,97.488-28.8h-14.4c1.3,17.568,16.272,30.528,35.856,30.528,20.448,0,36-14.112,36-32.832S140.112-63.936,120.672-63.936Zm84.1,65.664C227.52,1.728,243.5-19.3,243.5-49.68s-15.984-51.408-38.736-51.408S166.032-80.064,166.032-49.68,182.016,1.728,204.768,1.728Zm0-18c-14.256,0-24.48-13.68-24.48-33.408s10.224-33.408,24.48-33.408c14.4,0,24.48,13.68,24.48,33.408S219.168-16.272,204.768-16.272Zm86.086-80.277a27.57,27.57,0,0,1,19.067,7.56v-11a32.007,32.007,0,0,0-20.159-6.972c-14.027,0-25.283,8.4-29.146,20.495h-6.048l-1.26,7.14h5.964a22,22,0,0,0-.084,2.352,22,22,0,0,0,.084,2.352h-4.7l-1.26,7.14h7.308c3.864,12.1,15.119,20.495,29.062,20.495a32.071,32.071,0,0,0,20.243-6.972v-11a27.507,27.507,0,0,1-19.067,7.476c-9.323,0-16.8-3.948-20.663-10h28.222l1.176-7.14H267.671a20.651,20.651,0,0,1-.168-2.352,20.651,20.651,0,0,1,.168-2.352h32.59l1.176-7.14H270.191C273.971-92.6,281.53-96.549,290.854-96.549Zm44.685,1.008,2.1-.756,5.628-2.688-3.276-5.712-5.292,3.276-1.764,1.428.336-2.184v-6.3h-5.88v6.3l.336,2.184-1.68-1.428-5.376-3.276L317.4-98.985l5.628,2.6,2.1.84-2.1.756L317.4-92.1l3.276,5.8,5.376-3.36,1.68-1.344-.336,2.184v6.216h5.88v-6.216l-.336-2.184,1.68,1.344,5.376,3.36,3.276-5.8-5.628-2.6Z" transform="translate(-11331 9329)" fill="#05e69b"/>
      <path id="Trazado_269" data-name="Trazado 269" d="M5.9-99.36v17.568H57.456L14.112,0H32.688l41.76-86.256v-13.1ZM120.672-63.936c-7.488,0-15.7,2.736-20.448,6.912l1.728-24.768h46.8V-99.36H90.144L84.96-40.608H99.5c3.6-3.456,11.952-6.192,19.44-6.192,12.528,0,21.888,6.624,21.888,15.264,0,8.784-9.36,15.264-21.888,15.264C108-16.272,99.216-21.456,97.488-28.8h-14.4c1.3,17.568,16.272,30.528,35.856,30.528,20.448,0,36-14.112,36-32.832S140.112-63.936,120.672-63.936Zm84.1,65.664C227.52,1.728,243.5-19.3,243.5-49.68s-15.984-51.408-38.736-51.408S166.032-80.064,166.032-49.68,182.016,1.728,204.768,1.728Zm0-18c-14.256,0-24.48-13.68-24.48-33.408s10.224-33.408,24.48-33.408c14.4,0,24.48,13.68,24.48,33.408S219.168-16.272,204.768-16.272Zm86.086-80.277a27.57,27.57,0,0,1,19.067,7.56v-11a32.007,32.007,0,0,0-20.159-6.972c-14.027,0-25.283,8.4-29.146,20.495h-6.048l-1.26,7.14h5.964a22,22,0,0,0-.084,2.352,22,22,0,0,0,.084,2.352h-4.7l-1.26,7.14h7.308c3.864,12.1,15.119,20.495,29.062,20.495a32.071,32.071,0,0,0,20.243-6.972v-11a27.507,27.507,0,0,1-19.067,7.476c-9.323,0-16.8-3.948-20.663-10h28.222l1.176-7.14H267.671a20.651,20.651,0,0,1-.168-2.352,20.651,20.651,0,0,1,.168-2.352h32.59l1.176-7.14H270.191C273.971-92.6,281.53-96.549,290.854-96.549Zm44.685,1.008,2.1-.756,5.628-2.688-3.276-5.712-5.292,3.276-1.764,1.428.336-2.184v-6.3h-5.88v6.3l.336,2.184-1.68-1.428-5.376-3.276L317.4-98.985l5.628,2.6,2.1.84-2.1.756L317.4-92.1l3.276,5.8,5.376-3.36,1.68-1.344-.336,2.184v6.216h5.88v-6.216l-.336-2.184,1.68,1.344,5.376,3.36,3.276-5.8-5.628-2.6Z" transform="translate(-11328 9325)" fill="none" stroke="#182935" stroke-width="2"/>
    </g>
  </g>
</svg>
