<svg xmlns="http://www.w3.org/2000/svg" width="418.359" height="115.204" viewBox="0 0 418.359 115.204">
  <g id="Grupo_168" data-name="Grupo 168" transform="translate(10672.96 -9215.523)">
    <g id="Grupo_166" data-name="Grupo 166">
      <path id="Trazado_268" data-name="Trazado 268" d="M33.7-99.36,5.04-85.248v19.3l27.072-13.1V0h13.68V-99.36ZM136.944-37.008H124.56V-99.36H103.392l-41.76,66.1v13.392H110.88V0h13.68V-19.872h12.384Zm-58.608,0L109.584-84.1h1.3v47.088ZM186.624,1.728c22.752,0,38.736-21.024,38.736-51.408s-15.984-51.408-38.736-51.408S147.888-80.064,147.888-49.68,163.872,1.728,186.624,1.728Zm0-18c-14.256,0-24.48-13.68-24.48-33.408s10.224-33.408,24.48-33.408c14.4,0,24.48,13.68,24.48,33.408S201.024-16.272,186.624-16.272Zm91.872,18c22.752,0,38.736-21.024,38.736-51.408s-15.984-51.408-38.736-51.408S239.76-80.064,239.76-49.68,255.744,1.728,278.5,1.728Zm0-18c-14.256,0-24.48-13.68-24.48-33.408S264.24-83.088,278.5-83.088c14.4,0,24.48,13.68,24.48,33.408S292.9-16.272,278.5-16.272Zm86.086-80.277a27.57,27.57,0,0,1,19.067,7.56v-11a32.007,32.007,0,0,0-20.159-6.972c-14.027,0-25.283,8.4-29.146,20.495H328.3l-1.26,7.14H333a22.011,22.011,0,0,0-.084,2.352A22.011,22.011,0,0,0,333-74.626h-4.7l-1.26,7.14h7.308c3.864,12.1,15.119,20.495,29.062,20.495a32.071,32.071,0,0,0,20.243-6.972v-11a27.508,27.508,0,0,1-19.067,7.476c-9.323,0-16.8-3.948-20.663-10h28.222l1.176-7.14H341.4a20.644,20.644,0,0,1-.168-2.352,20.644,20.644,0,0,1,.168-2.352h32.59l1.176-7.14H343.919C347.7-92.6,355.258-96.549,364.582-96.549Zm44.685,1.008,2.1-.756,5.628-2.688-3.276-5.712-5.292,3.276-1.764,1.428.336-2.184v-6.3h-5.88v6.3l.336,2.184-1.68-1.428L394.4-104.7l-3.276,5.712,5.628,2.6,2.1.84-2.1.756L391.124-92.1l3.276,5.8,5.376-3.36,1.68-1.344-.336,2.184v6.216H407v-6.216l-.336-2.184,1.68,1.344,5.376,3.36,3.276-5.8-5.628-2.6Z" transform="translate(-10678 9329)" fill="#05e69b"/>
      <path id="Trazado_267" data-name="Trazado 267" d="M33.7-99.36,5.04-85.248v19.3l27.072-13.1V0h13.68V-99.36ZM136.944-37.008H124.56V-99.36H103.392l-41.76,66.1v13.392H110.88V0h13.68V-19.872h12.384Zm-58.608,0L109.584-84.1h1.3v47.088ZM186.624,1.728c22.752,0,38.736-21.024,38.736-51.408s-15.984-51.408-38.736-51.408S147.888-80.064,147.888-49.68,163.872,1.728,186.624,1.728Zm0-18c-14.256,0-24.48-13.68-24.48-33.408s10.224-33.408,24.48-33.408c14.4,0,24.48,13.68,24.48,33.408S201.024-16.272,186.624-16.272Zm91.872,18c22.752,0,38.736-21.024,38.736-51.408s-15.984-51.408-38.736-51.408S239.76-80.064,239.76-49.68,255.744,1.728,278.5,1.728Zm0-18c-14.256,0-24.48-13.68-24.48-33.408S264.24-83.088,278.5-83.088c14.4,0,24.48,13.68,24.48,33.408S292.9-16.272,278.5-16.272Zm86.086-80.277a27.57,27.57,0,0,1,19.067,7.56v-11a32.007,32.007,0,0,0-20.159-6.972c-14.027,0-25.283,8.4-29.146,20.495H328.3l-1.26,7.14H333a22.011,22.011,0,0,0-.084,2.352A22.011,22.011,0,0,0,333-74.626h-4.7l-1.26,7.14h7.308c3.864,12.1,15.119,20.495,29.062,20.495a32.071,32.071,0,0,0,20.243-6.972v-11a27.508,27.508,0,0,1-19.067,7.476c-9.323,0-16.8-3.948-20.663-10h28.222l1.176-7.14H341.4a20.644,20.644,0,0,1-.168-2.352,20.644,20.644,0,0,1,.168-2.352h32.59l1.176-7.14H343.919C347.7-92.6,355.258-96.549,364.582-96.549Zm44.685,1.008,2.1-.756,5.628-2.688-3.276-5.712-5.292,3.276-1.764,1.428.336-2.184v-6.3h-5.88v6.3l.336,2.184-1.68-1.428L394.4-104.7l-3.276,5.712,5.628,2.6,2.1.84-2.1.756L391.124-92.1l3.276,5.8,5.376-3.36,1.68-1.344-.336,2.184v6.216H407v-6.216l-.336-2.184,1.68,1.344,5.376,3.36,3.276-5.8-5.628-2.6Z" transform="translate(-10673 9325)" fill="none" stroke="#182935" stroke-width="2"/>
    </g>
  </g>
</svg>
