<svg xmlns="http://www.w3.org/2000/svg" width="27.899" height="27.899" viewBox="0 0 27.899 27.899">
  <path id="Trazado_342" data-name="Trazado 342" d="M20.98,27.9H6.92a6.971,6.971,0,0,1-1.395-.141,6.882,6.882,0,0,1-2.474-1.041A6.94,6.94,0,0,1,.544,23.673a6.885,6.885,0,0,1-.4-1.3A6.971,6.971,0,0,1,0,20.98V6.92A6.971,6.971,0,0,1,.141,5.525,6.882,6.882,0,0,1,1.182,3.051,6.94,6.94,0,0,1,4.226.544a6.885,6.885,0,0,1,1.3-.4A6.971,6.971,0,0,1,6.92,0H20.98a6.971,6.971,0,0,1,1.395.141,6.882,6.882,0,0,1,2.474,1.041,6.94,6.94,0,0,1,2.507,3.044,6.885,6.885,0,0,1,.4,1.3A6.971,6.971,0,0,1,27.9,6.92V20.98a6.971,6.971,0,0,1-.141,1.395,6.882,6.882,0,0,1-1.041,2.474,6.94,6.94,0,0,1-3.044,2.507,6.885,6.885,0,0,1-1.3.4A6.971,6.971,0,0,1,20.98,27.9ZM4.484,10.905v7.213A2.79,2.79,0,0,0,7.275,20.91H20.608A2.79,2.79,0,0,0,23.4,18.119V10.905l-8.911,5.427a1.075,1.075,0,0,1-1.117,0ZM7.275,6.975a2.732,2.732,0,0,0-.94.166A2.78,2.78,0,0,0,4.573,9.163l9.38,5.717L23.31,9.163a2.745,2.745,0,0,0-.35-.87,2.79,2.79,0,0,0-1.412-1.153,2.732,2.732,0,0,0-.94-.166Z" fill="#182935"/>
</svg>
