<svg id="linkedin" xmlns="http://www.w3.org/2000/svg" width="27.922" height="27.899" viewBox="0 0 27.922 27.899">
  <g id="Grupo_99" data-name="Grupo 99" transform="translate(0 0)">
    <path id="Trazado_204" data-name="Trazado 204" d="M20.9.2H7a7.012,7.012,0,0,0-7,7V21.125A7.007,7.007,0,0,0,7,28.1H20.925a7.012,7.012,0,0,0,7-7V7.2A7.045,7.045,0,0,0,20.9.2ZM9.3,22.785H5.314V11.271H9.3ZM7.285,9.5A2.037,2.037,0,1,1,9.322,7.463,2.06,2.06,0,0,1,7.285,9.5ZM22.607,22.785H19.264v-5.58c0-1.351-.177-3.078-2.015-3.078-1.882,0-2.192,1.461-2.192,2.989v5.668H11.736V11.271h3.1v1.55h.089a3.636,3.636,0,0,1,3.388-1.572c3.654,0,4.3,2.1,4.3,5.226v6.311Z" transform="translate(0 -0.2)" fill="#182935"/>
  </g>
</svg>
