<svg xmlns="http://www.w3.org/2000/svg" width="27.899" height="27.899" viewBox="0 0 27.899 27.899">
  <path id="Trazado_340" data-name="Trazado 340" d="M20.98,27.9H6.92a6.971,6.971,0,0,1-1.395-.141,6.882,6.882,0,0,1-2.474-1.041A6.94,6.94,0,0,1,.544,23.673a6.885,6.885,0,0,1-.4-1.3A6.971,6.971,0,0,1,0,20.98V6.92A6.971,6.971,0,0,1,.141,5.525,6.882,6.882,0,0,1,1.182,3.051,6.94,6.94,0,0,1,4.226.544a6.885,6.885,0,0,1,1.3-.4A6.971,6.971,0,0,1,6.92,0H20.98a6.971,6.971,0,0,1,1.395.141,6.882,6.882,0,0,1,2.474,1.041,6.94,6.94,0,0,1,2.507,3.044,6.885,6.885,0,0,1,.4,1.3A6.971,6.971,0,0,1,27.9,6.92V20.98a6.971,6.971,0,0,1-.141,1.395,6.882,6.882,0,0,1-1.041,2.474,6.94,6.94,0,0,1-3.044,2.507,6.885,6.885,0,0,1-1.3.4A6.971,6.971,0,0,1,20.98,27.9Zm-15-8.927h0a9.184,9.184,0,0,0,2.359,1.085A9.333,9.333,0,0,0,11,20.441a9.432,9.432,0,0,0,4-.847,8.749,8.749,0,0,0,1.6-.959,9.022,9.022,0,0,0,1.322-1.228,9.5,9.5,0,0,0,1.039-1.431,9.837,9.837,0,0,0,.751-1.567,9.733,9.733,0,0,0,.455-1.637,9.05,9.05,0,0,0,.153-1.641c0-.155-.006-.3-.012-.423a6.539,6.539,0,0,0,1.64-1.7h0a6.848,6.848,0,0,1-1.885.517,3.256,3.256,0,0,0,1.44-1.808,6.549,6.549,0,0,1-2.075.792,3.274,3.274,0,0,0-2.39-1.035,3.251,3.251,0,0,0-1.831.56,3.283,3.283,0,0,0-1.183,1.441,3.255,3.255,0,0,0-.256,1.272,3.349,3.349,0,0,0,.076.746,9.278,9.278,0,0,1-1.974-.312,9.22,9.22,0,0,1-1.812-.7A9.32,9.32,0,0,1,8.443,9.423,9.421,9.421,0,0,1,7.09,8.069a3.4,3.4,0,0,0-.33.785,3.258,3.258,0,0,0,.282,2.436A3.292,3.292,0,0,0,8.1,12.442a3.1,3.1,0,0,1-.773-.115,3.318,3.318,0,0,1-.706-.288v.036a3.266,3.266,0,0,0,.753,2.09,3.3,3.3,0,0,0,.831.718,3.251,3.251,0,0,0,1.037.407,3.422,3.422,0,0,1-.876.108,2.912,2.912,0,0,1-.6-.056A3.32,3.32,0,0,0,9.8,17.435a3.255,3.255,0,0,0,1.021.187,6.577,6.577,0,0,1-4.057,1.4A6.124,6.124,0,0,1,5.979,18.973Z" fill="#182935"/>
</svg>
