<svg id="github" xmlns="http://www.w3.org/2000/svg" width="27.899" height="27.899" viewBox="0 0 27.899 27.899">
  <g id="Grupo_101" data-name="Grupo 101" transform="translate(0)">
    <path id="Trazado_212" data-name="Trazado 212" d="M154.369,352.516q-.291.054-.254.272t.327.145q.291-.073.254-.254Q154.659,352.48,154.369,352.516Z" transform="translate(-144.306 -330.084)" fill="#182935"/>
    <path id="Trazado_213" data-name="Trazado 213" d="M137.621,354.813c-.194,0-.291.066-.291.2q0,.236.309.2.291,0,.291-.2C137.93,354.856,137.827,354.789,137.621,354.813Z" transform="translate(-128.593 -332.236)" fill="#182935"/>
    <path id="Trazado_214" data-name="Trazado 214" d="M119.426,351.866q-.073.2.236.273.272.108.345-.109.055-.2-.236-.291C119.589,351.69,119.474,351.732,119.426,351.866Z" transform="translate(-111.815 -329.343)" fill="#182935"/>
    <path id="Trazado_215" data-name="Trazado 215" d="M26.365,1.535A5.039,5.039,0,0,0,22.668,0H5.231a5.04,5.04,0,0,0-3.7,1.535A5.039,5.039,0,0,0,0,5.231V22.668a5.038,5.038,0,0,0,1.535,3.7,5.039,5.039,0,0,0,3.7,1.535H9.3a4.912,4.912,0,0,0,.6-.027.7.7,0,0,0,.4-.236.846.846,0,0,0,.2-.608q0-.054-.009-1.235t-.009-1.871l-.418.073a5.346,5.346,0,0,1-1.008.064,7.757,7.757,0,0,1-1.262-.127,2.83,2.83,0,0,1-1.217-.545,2.305,2.305,0,0,1-.8-1.117l-.182-.418a4.537,4.537,0,0,0-.572-.926,2.192,2.192,0,0,0-.79-.69L4.1,20.143a1.336,1.336,0,0,1-.236-.218,1.009,1.009,0,0,1-.163-.254q-.054-.127.091-.209a1.181,1.181,0,0,1,.527-.081l.363.054a2.648,2.648,0,0,1,.9.436,2.931,2.931,0,0,1,.881.944A3.2,3.2,0,0,0,7.474,21.95a2.137,2.137,0,0,0,1.19.391A5.16,5.16,0,0,0,9.7,22.25a3.616,3.616,0,0,0,.817-.273,2.944,2.944,0,0,1,.89-1.871,12.438,12.438,0,0,1-1.862-.327,7.42,7.42,0,0,1-1.707-.708,4.888,4.888,0,0,1-1.462-1.217,5.851,5.851,0,0,1-.953-1.907,9.071,9.071,0,0,1-.372-2.725A5.3,5.3,0,0,1,6.484,9.48a4.883,4.883,0,0,1,.127-3.705,2.545,2.545,0,0,1,1.562.245,10.954,10.954,0,0,1,1.517.7q.482.29.772.491a13.114,13.114,0,0,1,6.975,0l.69-.436a9.771,9.771,0,0,1,1.671-.8,2.379,2.379,0,0,1,1.471-.2,4.835,4.835,0,0,1,.145,3.705,5.3,5.3,0,0,1,1.435,3.742,9.158,9.158,0,0,1-.372,2.734,5.612,5.612,0,0,1-.963,1.907,5.079,5.079,0,0,1-1.471,1.208,7.41,7.41,0,0,1-1.708.708,12.429,12.429,0,0,1-1.862.327,3.235,3.235,0,0,1,.944,2.579v4.341a1.169,1.169,0,0,0,.091.5.5.5,0,0,0,.291.263,1.609,1.609,0,0,0,.354.091,4.077,4.077,0,0,0,.445.018h4.069A5.24,5.24,0,0,0,27.9,22.668V5.231A5.04,5.04,0,0,0,26.365,1.535Z" transform="translate(0)" fill="#182935"/>
    <path id="Trazado_216" data-name="Trazado 216" d="M85.975,318.551q-.127.09.036.29.182.182.291.054.127-.09-.037-.291Q86.084,318.442,85.975,318.551Z" transform="translate(-80.453 -298.244)" fill="#182935"/>
    <path id="Trazado_217" data-name="Trazado 217" d="M77.189,311.218q-.054.127.127.218a.155.155,0,0,0,.236-.036q.054-.127-.127-.218Q77.244,311.127,77.189,311.218Z" transform="translate(-72.267 -291.365)" fill="#182935"/>
    <path id="Trazado_218" data-name="Trazado 218" d="M94.442,329.674q-.164.09,0,.327t.309.127q.164-.127,0-.345C94.654,329.625,94.551,329.589,94.442,329.674Z" transform="translate(-88.357 -308.658)" fill="#182935"/>
    <path id="Trazado_219" data-name="Trazado 219" d="M104.655,342.145c-.109.1-.085.212.073.345s.266.163.363.054.073-.212-.073-.345S104.752,342.036,104.655,342.145Z" transform="translate(-97.934 -320.313)" fill="#182935"/>
  </g>
</svg>
